<svg width="127" height="45" viewBox="0 0 127 45" fill="none" xmlns="http://www.w3.org/2000/svg">
<path d="M55.4367 26.5663V29.8193C55.4367 32.5301 54.488 33.75 51.7771 33.75H50.4217C47.7108 33.75 46.762 32.3946 46.762 29.8193V15.1807C46.762 12.4699 47.7108 11.25 50.4217 11.25H51.7771C54.488 11.25 55.4367 12.6054 55.4367 15.1807V18.4337H66.4157V26.5663H55.4367ZM14.7741 26.9729L18.0271 9.08133H18.8404L22.0934 26.9729H14.7741ZM-1.29263e-07 44.0512H11.6566L13.012 36.4608H23.991L25.3464 44.0512H37.4096L35.9187 36.8675H36.4608C38.3584 42.1536 42.6958 45 50.0151 45H51.3705C60.994 45 65.738 39.9849 66.009 31.4458H66.6867V44.0512H94.744V36.1898H95.1506C97.3193 42.1536 101.928 45 109.247 45H110.873C121.175 45 126.596 39.7139 126.596 29.5482V0.948795H114.262V30.0904C114.262 32.5301 113.313 33.8855 110.738 33.8855H109.383C106.672 33.8855 105.858 32.5301 105.858 30.0904V0.948795H93.5241V32.3946H78.75V0.948795H66.4157V13.5542H65.738C65.738 5.28614 61.4006 1.29263e-07 51.6416 1.29263e-07H49.744C39.1717 1.29263e-07 34.4277 5.42169 34.4277 15.1807V29.6837C34.4277 30.2259 34.4277 30.7681 34.4277 31.3102H34.0211L28.4639 0.948795H8.94578L-1.29263e-07 44.0512Z" fill="#0055AA"/>
</svg>
